<?xml version="1.0" encoding="UTF-8"?>
<mxfile host="app.diagrams.net" modified="2025-05-30T10:54:00.000Z" agent="Mozilla/5.0" version="21.2.9">
  <diagram id="scatch-architecture" name="Scatch E-commerce Architecture">
    <mxGraphModel dx="1200" dy="800" grid="1" gridSize="10" guides="1" tooltips="1" connect="1" arrows="1" fold="1" page="1" pageScale="1" pageWidth="850" pageHeight="1100" math="0" shadow="0">
      <root>
        <mxCell id="0"/>
        <mxCell id="1" parent="0"/>
        
        <!-- Frontend Layer -->
        <mxCell id="2" value="Frontend Layer" style="swimlane;horizontal=0;whiteSpace=wrap;html=1;fillColor=#dae8fc;strokeColor=#6c8ebf;" vertex="1" parent="1">
          <mxGeometry x="40" y="40" width="760" height="160" as="geometry"/>
        </mxCell>
        
        <!-- Views -->
        <mxCell id="3" value="Views (EJS)" style="rounded=1;whiteSpace=wrap;html=1;fillColor=#fff2cc;strokeColor=#d6b656;" vertex="1" parent="2">
          <mxGeometry x="40" y="20" width="120" height="120" as="geometry"/>
        </mxCell>
        
        <!-- Static Assets -->
        <mxCell id="4" value="Static Assets&#xa;(CSS, JS, Images)" style="rounded=1;whiteSpace=wrap;html=1;fillColor=#fff2cc;strokeColor=#d6b656;" vertex="1" parent="2">
          <mxGeometry x="200" y="20" width="120" height="120" as="geometry"/>
        </mxCell>
        
        <!-- Application Layer -->
        <mxCell id="5" value="Application Layer" style="swimlane;horizontal=0;whiteSpace=wrap;html=1;fillColor=#d5e8d4;strokeColor=#82b366;" vertex="1" parent="1">
          <mxGeometry x="40" y="240" width="760" height="320" as="geometry"/>
        </mxCell>
        
        <!-- Routes -->
        <mxCell id="6" value="Routes" style="swimlane;whiteSpace=wrap;html=1;fillColor=#e1d5e7;strokeColor=#9673a6;" vertex="1" parent="5">
          <mxGeometry x="40" y="20" width="160" height="280" as="geometry">
            <mxRectangle x="40" y="20" width="80" height="30" as="alternateBounds"/>
          </mxGeometry>
        </mxCell>
        
        <!-- Route Components -->
        <mxCell id="7" value="auth.js" style="rounded=1;whiteSpace=wrap;html=1;" vertex="1" parent="6">
          <mxGeometry x="20" y="40" width="120" height="30" as="geometry"/>
        </mxCell>
        <mxCell id="8" value="index.js" style="rounded=1;whiteSpace=wrap;html=1;" vertex="1" parent="6">
          <mxGeometry x="20" y="80" width="120" height="30" as="geometry"/>
        </mxCell>
        <mxCell id="9" value="shop.js" style="rounded=1;whiteSpace=wrap;html=1;" vertex="1" parent="6">
          <mxGeometry x="20" y="120" width="120" height="30" as="geometry"/>
        </mxCell>
        <mxCell id="10" value="cart.js" style="rounded=1;whiteSpace=wrap;html=1;" vertex="1" parent="6">
          <mxGeometry x="20" y="160" width="120" height="30" as="geometry"/>
        </mxCell>
        
        <!-- Controllers -->
        <mxCell id="11" value="Controllers" style="swimlane;whiteSpace=wrap;html=1;fillColor=#e1d5e7;strokeColor=#9673a6;" vertex="1" parent="5">
          <mxGeometry x="240" y="20" width="160" height="280" as="geometry"/>
        </mxCell>
        
        <!-- Controller Components -->
        <mxCell id="12" value="authController.js" style="rounded=1;whiteSpace=wrap;html=1;" vertex="1" parent="11">
          <mxGeometry x="20" y="40" width="120" height="30" as="geometry"/>
        </mxCell>
        <mxCell id="13" value="productController.js" style="rounded=1;whiteSpace=wrap;html=1;" vertex="1" parent="11">
          <mxGeometry x="20" y="80" width="120" height="30" as="geometry"/>
        </mxCell>
        <mxCell id="14" value="cartController.js" style="rounded=1;whiteSpace=wrap;html=1;" vertex="1" parent="11">
          <mxGeometry x="20" y="120" width="120" height="30" as="geometry"/>
        </mxCell>
        
        <!-- Middlewares -->
        <mxCell id="15" value="Middlewares" style="swimlane;whiteSpace=wrap;html=1;fillColor=#e1d5e7;strokeColor=#9673a6;" vertex="1" parent="5">
          <mxGeometry x="440" y="20" width="160" height="280" as="geometry"/>
        </mxCell>
        
        <!-- Middleware Components -->
        <mxCell id="16" value="auth.js" style="rounded=1;whiteSpace=wrap;html=1;" vertex="1" parent="15">
          <mxGeometry x="20" y="40" width="120" height="30" as="geometry"/>
        </mxCell>
        <mxCell id="17" value="rateLimiter.js" style="rounded=1;whiteSpace=wrap;html=1;" vertex="1" parent="15">
          <mxGeometry x="20" y="80" width="120" height="30" as="geometry"/>
        </mxCell>
        <mxCell id="18" value="errorHandler.js" style="rounded=1;whiteSpace=wrap;html=1;" vertex="1" parent="15">
          <mxGeometry x="20" y="120" width="120" height="30" as="geometry"/>
        </mxCell>
        
        <!-- Data Layer -->
        <mxCell id="19" value="Data Layer" style="swimlane;horizontal=0;whiteSpace=wrap;html=1;fillColor=#f8cecc;strokeColor=#b85450;" vertex="1" parent="1">
          <mxGeometry x="40" y="600" width="760" height="160" as="geometry"/>
        </mxCell>
        
        <!-- Models -->
        <mxCell id="20" value="Models" style="swimlane;whiteSpace=wrap;html=1;fillColor=#ffe6cc;strokeColor=#d79b00;" vertex="1" parent="19">
          <mxGeometry x="40" y="20" width="680" height="120" as="geometry"/>
        </mxCell>
        
        <!-- Model Components -->
        <mxCell id="21" value="usermodel.js" style="rounded=1;whiteSpace=wrap;html=1;" vertex="1" parent="20">
          <mxGeometry x="20" y="40" width="120" height="60" as="geometry"/>
        </mxCell>
        <mxCell id="22" value="Product.js" style="rounded=1;whiteSpace=wrap;html=1;" vertex="1" parent="20">
          <mxGeometry x="160" y="40" width="120" height="60" as="geometry"/>
        </mxCell>
        <mxCell id="23" value="Order.js" style="rounded=1;whiteSpace=wrap;html=1;" vertex="1" parent="20">
          <mxGeometry x="300" y="40" width="120" height="60" as="geometry"/>
        </mxCell>
        
        <!-- External Services -->
        <mxCell id="24" value="External Services" style="swimlane;horizontal=0;whiteSpace=wrap;html=1;fillColor=#f5f5f5;strokeColor=#666666;fontColor=#333333;" vertex="1" parent="1">
          <mxGeometry x="40" y="800" width="760" height="120" as="geometry"/>
        </mxCell>
        
        <!-- Service Components -->
        <mxCell id="25" value="MongoDB" style="rounded=1;whiteSpace=wrap;html=1;fillColor=#f5f5f5;strokeColor=#666666;fontColor=#333333;" vertex="1" parent="24">
          <mxGeometry x="40" y="20" width="120" height="80" as="geometry"/>
        </mxCell>
        <mxCell id="26" value="Redis" style="rounded=1;whiteSpace=wrap;html=1;fillColor=#f5f5f5;strokeColor=#666666;fontColor=#333333;" vertex="1" parent="24">
          <mxGeometry x="180" y="20" width="120" height="80" as="geometry"/>
        </mxCell>
        <mxCell id="27" value="Stripe" style="rounded=1;whiteSpace=wrap;html=1;fillColor=#f5f5f5;strokeColor=#666666;fontColor=#333333;" vertex="1" parent="24">
          <mxGeometry x="320" y="20" width="120" height="80" as="geometry"/>
        </mxCell>
        
        <!-- Connections -->
        <mxCell id="28" value="" style="endArrow=classic;startArrow=classic;html=1;rounded=0;exitX=0.5;exitY=0;exitDx=0;exitDy=0;entryX=0.5;entryY=1;entryDx=0;entryDy=0;" edge="1" parent="1" source="5" target="2">
          <mxGeometry width="50" height="50" relative="1" as="geometry">
            <mxPoint x="400" y="430" as="sourcePoint"/>
            <mxPoint x="450" y="380" as="targetPoint"/>
          </mxGeometry>
        </mxCell>
        <mxCell id="29" value="" style="endArrow=classic;startArrow=classic;html=1;rounded=0;exitX=0.5;exitY=0;exitDx=0;exitDy=0;entryX=0.5;entryY=1;entryDx=0;entryDy=0;" edge="1" parent="1" source="19" target="5">
          <mxGeometry width="50" height="50" relative="1" as="geometry">
            <mxPoint x="400" y="430" as="sourcePoint"/>
            <mxPoint x="450" y="380" as="targetPoint"/>
          </mxGeometry>
        </mxCell>
        <mxCell id="30" value="" style="endArrow=classic;startArrow=classic;html=1;rounded=0;exitX=0.5;exitY=0;exitDx=0;exitDy=0;entryX=0.5;entryY=1;entryDx=0;entryDy=0;" edge="1" parent="1" source="24" target="19">
          <mxGeometry width="50" height="50" relative="1" as="geometry">
            <mxPoint x="400" y="430" as="sourcePoint"/>
            <mxPoint x="450" y="380" as="targetPoint"/>
          </mxGeometry>
        </mxCell>
      </root>
    </mxGraphModel>
  </diagram>
</mxfile>
